<svg width="21" height="20" viewBox="0 0 21 20" fill="none" xmlns="http://www.w3.org/2000/svg">
<path d="M12.8809 12.4218C12.8332 12.4218 12.785 12.4135 12.7382 12.3964C12.5706 12.3352 12.4588 12.1734 12.4588 11.9921V8.77508L4.52663 4.11504C4.3247 3.99637 4.2555 3.7336 4.37206 3.52809C4.48863 3.32258 4.7468 3.25219 4.94881 3.37078L13.0921 8.15485C13.2228 8.2316 13.3033 8.37348 13.3033 8.527V10.7961L14.1955 9.69563C14.2963 9.57133 14.4569 9.51493 14.6116 9.54934L15.4058 9.72649V7.0436L7.46882 2.38297C7.26685 2.26438 7.1976 2.00161 7.31413 1.79606C7.43066 1.59051 7.68887 1.52004 7.89084 1.63864L16.039 6.42325C16.1697 6.5 16.2502 6.64188 16.2502 6.79543V10.2606C16.2502 10.3907 16.1922 10.5138 16.0926 10.5953C15.993 10.6769 15.8624 10.7081 15.7376 10.6803L14.6827 10.445L13.2067 12.2656C13.1249 12.3664 13.0046 12.4218 12.8809 12.4218Z" fill="#086E86"/>
<path d="M18.9099 5.05605C18.9087 5.05304 18.9076 5.04995 18.9064 5.04698C18.9041 5.04167 18.9013 5.03651 18.8988 5.03124C18.8627 4.95362 18.8046 4.88706 18.7291 4.84265L10.585 0.0575684C10.4544 -0.0191895 10.2934 -0.0191895 10.1628 0.0575684L2.07817 4.8078C1.9902 4.84163 1.9127 4.9053 1.86204 4.9946C1.81628 5.07519 1.79951 5.16452 1.80769 5.25058V14.7851C1.80769 14.9387 1.88818 15.0805 2.01879 15.1573L10.1628 19.9424C10.2935 20.0192 10.4544 20.0192 10.585 19.9424L18.7291 15.1573C18.8597 15.0805 18.9402 14.9386 18.9402 14.7851V5.26042C18.9465 5.1923 18.9369 5.12226 18.9099 5.05605ZM10.3739 0.92585L17.6787 5.21792L10.3742 9.50382L3.07736 5.21304L10.3739 0.92585ZM2.65208 5.95546L9.95167 10.2479V18.8261L2.65208 14.5371V5.95546ZM10.7961 18.8261V10.2482L18.0957 5.96523V14.5371L10.7961 18.8261Z" fill="#353535"/>
<path d="M5.46103 15.1684C5.38941 15.1684 5.31683 15.1498 5.25031 15.1107L3.50549 14.0855C3.30356 13.9669 3.23435 13.7041 3.35096 13.4986C3.46757 13.2931 3.72581 13.2227 3.9277 13.3413L5.67253 14.3665C5.87446 14.4852 5.94366 14.7479 5.82706 14.9535C5.74887 15.0913 5.60697 15.1684 5.46103 15.1684Z" fill="#086E86"/>
<path d="M4.676 12.9565C4.60438 12.9565 4.53179 12.9379 4.46528 12.8988L3.50573 12.3351C3.3038 12.2164 3.2346 11.9536 3.3512 11.7481C3.46781 11.5426 3.72605 11.4722 3.92795 11.5908L4.88749 12.1546C5.08942 12.2733 5.15863 12.5361 5.04202 12.7416C4.96383 12.8794 4.82189 12.9565 4.676 12.9565Z" fill="#086E86"/>
</svg>
