<svg width="20" height="21" viewBox="0 0 20 21" fill="none" xmlns="http://www.w3.org/2000/svg">
<g opacity="0.4">
<path d="M1.66669 7.97037C1.66669 5.21183 3.89714 2.97559 6.66724 2.97559H13.3328C16.0945 2.97559 18.3334 5.22124 18.3334 7.97037V17.9756H6.66724C3.90551 17.9756 1.66669 15.7299 1.66669 12.9808V7.97037ZM16.6667 16.3089V7.97037C16.6667 6.13841 15.1708 4.64225 13.3328 4.64225H6.66724C4.8205 4.64225 3.33335 6.1294 3.33335 7.97037V12.9808C3.33335 14.8128 4.82929 16.3089 6.66724 16.3089H16.6667ZM11.6667 9.64225H13.3334V11.3089H11.6667V9.64225ZM6.66669 9.64225H8.33335V11.3089H6.66669V9.64225Z" fill="black"/>
</g>
</svg>
