<svg width="75" height="35" viewBox="0 0 75 35" fill="none" xmlns="http://www.w3.org/2000/svg">
<path d="M25.7678 34.5209C24.0734 33.9224 22.4999 32.4874 21.885 30.9797C21.6337 30.3636 21.2753 29.7563 21.0886 29.63C20.9019 29.5038 19.5933 29.4437 18.1807 29.4964C15.3655 29.6015 14.349 29.2822 14.349 28.2931C14.349 26.9534 15.4916 26.4623 18.609 26.4623C21.4505 26.4623 21.5663 26.4294 22.0654 25.4789C23.0832 23.5405 25.7104 21.8135 27.6414 21.8135C29.7986 21.8135 32.6966 23.5463 33.6752 25.4211L34.2186 26.4623H44.779H55.3393L55.955 25.4296C58.6996 20.8263 64.4568 20.685 67.3864 25.1491C68.2347 26.4417 68.3407 26.4906 70.0704 26.3892L71.8713 26.2835L71.8439 22.7076L71.8166 19.1316L63.2257 19.0355C55.8681 18.9533 54.5411 18.8554 53.9822 18.3543C53.3946 17.8275 53.3295 17.0656 53.3295 10.7163C53.3295 5.09916 53.2265 3.57877 52.823 3.24706C52.4507 2.9409 47.5212 2.84291 34.2203 2.87724C15.7288 2.92502 15.071 2.8808 15.071 1.59096C15.071 1.33407 15.3263 0.871024 15.6382 0.561945C16.1389 0.065853 18.3528 0 34.5336 0H52.8619L54.0883 0.81626C54.8624 1.33148 55.5039 2.17056 55.8278 3.09146L56.341 4.55042L59.5574 4.77661C63.6272 5.06282 64.1227 5.40425 69.3909 11.5523C74.8905 17.9704 74.7063 17.6198 74.842 21.928C75.0338 28.0131 74.2905 29.3231 70.646 29.3231C68.6248 29.3231 67.7667 29.734 67.7667 30.7018C67.7667 31.4814 66.0591 33.547 64.9509 34.108C62.2864 35.4566 59.5736 35.0707 57.2786 33.0163C56.4954 32.3153 55.7228 31.2378 55.5618 30.6218L55.269 29.5019L44.9144 29.407L34.5598 29.3122L33.9818 30.7435C33.2693 32.5076 31.4183 34.1676 29.6083 34.6656C27.8832 35.1402 27.4781 35.125 25.7678 34.5209ZM30.2241 31.2934C30.9384 30.8561 31.6228 28.8637 31.42 27.8124C31.1769 26.5526 29.8322 25.1262 28.5984 24.8194C26.3882 24.2698 23.6572 26.9776 24.3001 29.0812C24.6038 30.0751 25.8736 31.47 26.7851 31.8112C27.4985 32.0782 29.4134 31.7898 30.2241 31.2934ZM64.0493 31.2884C64.4753 30.9928 65.0076 30.1991 65.2322 29.5248C66.03 27.13 63.5144 24.2177 61.155 24.8044C58.0791 25.5693 57.1958 28.9393 59.5111 31.0764C60.4881 31.9782 62.8933 32.0905 64.0493 31.2884ZM69.5712 16.2703C69.5712 16.172 69.2869 15.7946 68.9395 15.4316C68.5921 15.0686 66.9613 13.2302 65.3154 11.3461L62.323 7.92057L60.0437 7.67874C56.2204 7.27308 56.4122 7.04815 56.2959 12.0729L56.1946 16.4491H62.8829C66.5615 16.4491 69.5712 16.3687 69.5712 16.2703ZM6.67923 21.7844C5.95417 21.366 5.84246 20.0138 6.48071 19.3814C6.78501 19.0799 8.81702 18.9523 13.3126 18.9523C18.6484 18.9523 19.8056 19.0456 20.2785 19.5143C21.0221 20.251 20.995 20.8531 20.1856 21.5789C19.6251 22.0815 18.605 22.1691 13.4182 22.1598C9.94491 22.1526 7.03844 21.9918 6.67923 21.7844ZM0.276618 15.2022C0.0211479 14.897 -0.0717278 14.287 0.0588355 13.7716L0.286479 12.8729H12.1834H24.0803L24.308 13.7716C24.7989 15.7094 24.649 15.7337 12.1834 15.7337C2.48033 15.7337 0.653712 15.6523 0.276618 15.2022ZM7.85224 8.58202C7.57776 8.07389 7.57776 7.65978 7.85224 7.15163C8.22441 6.46265 8.60796 6.43643 18.3192 6.43643C28.0304 6.43643 28.414 6.4627 28.7861 7.15163C29.0606 7.65978 29.0606 8.07389 28.7861 8.58202C28.414 9.27102 28.0304 9.29722 18.3192 9.29722C8.60796 9.29722 8.22441 9.27095 7.85224 8.58202Z" fill="black"/>
</svg>
