<svg width="20" height="20" viewBox="0 0 20 20" fill="none" xmlns="http://www.w3.org/2000/svg">
<mask id="mask0_31_3205" style="mask-type:alpha" maskUnits="userSpaceOnUse" x="0" y="0" width="20" height="20">
<rect width="20" height="20" fill="#D9D9D9"/>
</mask>
<g mask="url(#mask0_31_3205)">
<path d="M9.16667 18.3332V17.4998C7.43056 17.3054 5.94097 16.5866 4.69792 15.3436C3.45486 14.1005 2.73611 12.6109 2.54167 10.8748H1.70833C1.47222 10.8748 1.27431 10.795 1.11458 10.6353C0.954861 10.4755 0.875 10.2776 0.875 10.0415C0.875 9.80539 0.954861 9.60748 1.11458 9.44775C1.27431 9.28803 1.47222 9.20817 1.70833 9.20817H2.54167C2.73611 7.47206 3.45486 5.98248 4.69792 4.73942C5.94097 3.49637 7.43056 2.77762 9.16667 2.58317V1.74984C9.16667 1.51373 9.24653 1.31581 9.40625 1.15609C9.56597 0.996365 9.76389 0.916504 10 0.916504C10.2361 0.916504 10.434 0.996365 10.5938 1.15609C10.7535 1.31581 10.8333 1.51373 10.8333 1.74984V2.58317C12.5694 2.77762 14.059 3.49637 15.3021 4.73942C16.5451 5.98248 17.2639 7.47206 17.4583 9.20817H18.2917C18.5278 9.20817 18.7257 9.28803 18.8854 9.44775C19.0451 9.60748 19.125 9.80539 19.125 10.0415C19.125 10.2776 19.0451 10.4755 18.8854 10.6353C18.7257 10.795 18.5278 10.8748 18.2917 10.8748H17.4583C17.2639 12.6109 16.5451 14.1005 15.3021 15.3436C14.059 16.5866 12.5694 17.3054 10.8333 17.4998V18.3332C10.8333 18.5693 10.7535 18.7672 10.5938 18.9269C10.434 19.0866 10.2361 19.1665 10 19.1665C9.76389 19.1665 9.56597 19.0866 9.40625 18.9269C9.24653 18.7672 9.16667 18.5693 9.16667 18.3332ZM10 15.8748C11.6111 15.8748 12.9861 15.3054 14.125 14.1665C15.2639 13.0276 15.8333 11.6526 15.8333 10.0415C15.8333 8.43039 15.2639 7.05539 14.125 5.9165C12.9861 4.77762 11.6111 4.20817 10 4.20817C8.38889 4.20817 7.01389 4.77762 5.875 5.9165C4.73611 7.05539 4.16667 8.43039 4.16667 10.0415C4.16667 11.6526 4.73611 13.0276 5.875 14.1665C7.01389 15.3054 8.38889 15.8748 10 15.8748Z" fill="#353535"/>
</g>
</svg>
