<svg width="37" height="37" viewBox="0 0 37 37" fill="none" xmlns="http://www.w3.org/2000/svg">
<g clip-path="url(#clip0_31_3075)">
<path d="M18.2317 1.56934C8.57925 1.56934 0.754456 9.39413 0.754456 19.0465C0.754456 23.3511 2.31157 27.2913 4.89192 30.337L10.5339 34.7404C12.8565 35.8817 15.469 36.5238 18.2317 36.5238C20.8194 36.5238 23.2754 35.9608 25.4849 34.9515C23.5241 33.93 22.1813 31.8794 22.1813 29.5198C22.1813 26.1442 24.9275 23.398 28.303 23.398C30.7471 23.398 32.8604 24.8382 33.841 26.9141C35.0353 24.5494 35.7088 21.8768 35.7088 19.0465C35.7089 9.39413 27.8841 1.56934 18.2317 1.56934Z" fill="#FFBD86"/>
<path d="M22.1811 29.52C22.1811 26.1445 24.9273 23.3983 28.3028 23.3983C29.5041 23.3983 30.6247 23.7475 31.5711 24.3476V1.85496C31.5711 1.46097 31.2518 1.1416 30.8578 1.1416H23.9382V3.139C23.9382 3.29636 23.8103 3.42434 23.6529 3.42434H12.8099C12.6525 3.42434 12.5245 3.29636 12.5245 3.139V1.1416H5.60499C5.211 1.1416 4.89163 1.46097 4.89163 1.85496V30.3373C6.44147 32.1664 8.36032 33.6725 10.5337 34.7407H25.1096C23.3545 33.6631 22.1811 31.7262 22.1811 29.52Z" fill="#22B27F"/>
<path d="M8.63173 1.85496C8.63173 1.46097 8.9511 1.1416 9.34509 1.1416H5.60532C5.21134 1.1416 4.89197 1.46097 4.89197 1.85496V30.3372C5.97206 31.6121 7.23185 32.7294 8.63173 33.6514V1.85496Z" fill="#09A76D"/>
<path d="M22.1811 29.5201C22.1811 26.1446 24.9273 23.3983 28.3028 23.3983C28.6884 23.3983 29.0651 23.4359 29.431 23.5043V2.78237C29.431 2.66416 29.3352 2.56836 29.217 2.56836H23.9382V3.13904C23.9382 3.29641 23.8102 3.42439 23.6529 3.42439H12.8099C12.6525 3.42439 12.5245 3.29641 12.5245 3.13904V2.56836H7.24568C7.12748 2.56836 7.03168 2.66416 7.03168 2.78237V31.6733C7.03168 31.7915 7.12748 31.8873 7.24568 31.8873H22.6575C22.351 31.1587 22.1811 30.3589 22.1811 29.5201Z" fill="white"/>
<path d="M9.91578 31.6733V2.78237C9.91578 2.66416 10.0116 2.56836 10.1298 2.56836H7.24605C7.12785 2.56836 7.03204 2.66416 7.03204 2.78237V31.6733C7.03204 31.7915 7.12785 31.8873 7.24605 31.8873H10.1298C10.0116 31.8873 9.91578 31.7915 9.91578 31.6733Z" fill="#F8F6F6"/>
<path d="M21.8342 3.42432V4.00213H20.358C19.9612 4.00213 19.6176 4.25966 19.5028 4.64287C19.3361 5.19943 18.8134 5.58814 18.2317 5.58814C17.65 5.58814 17.1273 5.19943 16.9606 4.64294C16.8459 4.25966 16.5022 4.00213 16.1054 4.00213H14.6293V3.42432H13.5592V4.18047C13.5592 4.67219 13.9592 5.07217 14.4509 5.07217H15.9758C16.3144 6.01216 17.2241 6.65817 18.2317 6.65817C19.2393 6.65817 20.1489 6.01216 20.4876 5.07217H22.0125C22.5042 5.07217 22.9042 4.67219 22.9042 4.18047V3.42432H21.8342Z" fill="#9C9C9C"/>
<path d="M12.6052 12.3324C13.8315 12.3324 14.8256 11.3383 14.8256 10.112C14.8256 8.8857 13.8315 7.8916 12.6052 7.8916C11.3789 7.8916 10.3848 8.8857 10.3848 10.112C10.3848 11.3383 11.3789 12.3324 12.6052 12.3324Z" fill="#26A6FE"/>
<path d="M11.8418 10.112C11.8418 9.14097 12.4654 8.31612 13.3337 8.01451C13.1054 7.93526 12.8604 7.8916 12.6052 7.8916C11.3789 7.8916 10.3848 8.88566 10.3848 10.112C10.3848 11.3383 11.3789 12.3324 12.6052 12.3324C12.8604 12.3324 13.1054 12.2887 13.3337 12.2095C12.4654 11.9079 11.8418 11.0829 11.8418 10.112Z" fill="#0593FC"/>
<path d="M12.4549 11.3117C12.318 11.3117 12.181 11.2595 12.0766 11.155L11.1586 10.2371C10.9496 10.0281 10.9496 9.68935 11.1586 9.48048C11.3675 9.27147 11.7063 9.27154 11.9152 9.48041L12.4548 10.0201L13.2948 9.18009C13.5037 8.97122 13.8425 8.97122 14.0514 9.18009C14.2603 9.3891 14.2603 9.72781 14.0514 9.93675L12.8331 11.155C12.7287 11.2595 12.5918 11.3117 12.4549 11.3117Z" fill="white"/>
<path d="M26.0787 9.57687H16.7337C16.4382 9.57687 16.1987 9.3374 16.1987 9.04185C16.1987 8.74631 16.4382 8.50684 16.7337 8.50684H26.0787C26.3741 8.50684 26.6137 8.74631 26.6137 9.04185C26.6137 9.3374 26.3741 9.57687 26.0787 9.57687Z" fill="#9C9C9C"/>
<path d="M23.0112 11.717H16.7337C16.4382 11.717 16.1986 11.4775 16.1986 11.182C16.1986 10.8864 16.4382 10.647 16.7337 10.647H23.0112C23.3067 10.647 23.5462 10.8864 23.5462 11.182C23.5462 11.4775 23.3067 11.717 23.0112 11.717Z" fill="#9C9C9C"/>
<path d="M12.6052 17.9945C13.8315 17.9945 14.8256 17.0004 14.8256 15.7741C14.8256 14.5478 13.8315 13.5537 12.6052 13.5537C11.3789 13.5537 10.3848 14.5478 10.3848 15.7741C10.3848 17.0004 11.3789 17.9945 12.6052 17.9945Z" fill="#26A6FE"/>
<path d="M11.8418 15.7741C11.8418 14.8031 12.4654 13.9782 13.3337 13.6766C13.1054 13.5974 12.8604 13.5537 12.6052 13.5537C11.3789 13.5537 10.3848 14.5478 10.3848 15.7741C10.3848 17.0004 11.3789 17.9945 12.6052 17.9945C12.8604 17.9945 13.1054 17.9508 13.3337 17.8716C12.4654 17.57 11.8418 16.7451 11.8418 15.7741Z" fill="#0593FC"/>
<path d="M12.4549 16.9737C12.318 16.9737 12.1811 16.9215 12.0766 16.8171L11.1586 15.8991C10.9496 15.6902 10.9496 15.3514 11.1586 15.1425C11.3675 14.9335 11.7063 14.9336 11.9152 15.1425L12.4548 15.6821L13.2948 14.8422C13.5037 14.6333 13.8425 14.6333 14.0514 14.8423C14.2603 15.0512 14.2603 15.39 14.0514 15.5989L12.8331 16.8171C12.7287 16.9215 12.5918 16.9737 12.4549 16.9737Z" fill="white"/>
<path d="M26.0787 15.239H16.7337C16.4382 15.239 16.1987 14.9995 16.1987 14.704C16.1987 14.4084 16.4382 14.1689 16.7337 14.1689H26.0787C26.3741 14.1689 26.6137 14.4084 26.6137 14.704C26.6137 14.9995 26.3741 15.239 26.0787 15.239Z" fill="#9C9C9C"/>
<path d="M23.0112 17.3791H16.7337C16.4382 17.3791 16.1986 17.1396 16.1986 16.8441C16.1986 16.5486 16.4382 16.3091 16.7337 16.3091H23.0112C23.3067 16.3091 23.5462 16.5486 23.5462 16.8441C23.5462 17.1396 23.3067 17.3791 23.0112 17.3791Z" fill="#9C9C9C"/>
<path d="M12.6054 23.6571C13.8317 23.6571 14.8258 22.663 14.8258 21.4367C14.8258 20.2104 13.8317 19.2163 12.6054 19.2163C11.3791 19.2163 10.385 20.2104 10.385 21.4367C10.385 22.663 11.3791 23.6571 12.6054 23.6571Z" fill="#26A6FE"/>
<path d="M11.842 21.4367C11.842 20.4657 12.4656 19.6408 13.3338 19.3392C13.1056 19.26 12.8606 19.2163 12.6054 19.2163C11.3791 19.2163 10.385 20.2104 10.385 21.4367C10.385 22.663 11.379 23.657 12.6054 23.657C12.8606 23.657 13.1056 23.6134 13.3338 23.5341C12.4656 23.2326 11.842 22.4076 11.842 21.4367Z" fill="#0593FC"/>
<path d="M12.4551 22.6358C12.3182 22.6358 12.1813 22.5836 12.0768 22.4792L11.1588 21.5612C10.9499 21.3523 10.9499 21.0135 11.1588 20.8046C11.3678 20.5956 11.7065 20.5957 11.9154 20.8046L12.4551 21.3442L13.295 20.5043C13.504 20.2955 13.8427 20.2954 14.0516 20.5044C14.2606 20.7133 14.2606 21.0521 14.0516 21.261L12.8333 22.4792C12.729 22.5836 12.592 22.6358 12.4551 22.6358Z" fill="white"/>
<path d="M24.9693 19.8315H16.7337C16.4382 19.8315 16.1987 20.071 16.1987 20.3666C16.1987 20.6621 16.4382 20.9016 16.7337 20.9016H24.7503L24.9693 19.8315Z" fill="#9C9C9C"/>
<path d="M25.1265 19.335L24.9962 19.3422L24.2976 22.756C24.2742 22.8706 24.4101 22.9491 24.4977 22.8715L27.1048 20.5596L27.0482 20.4445L25.1265 19.335Z" fill="#FFE5C2"/>
<path d="M25.9324 19.8003L25.1265 19.335L24.9962 19.3422L24.2976 22.756C24.2742 22.8706 24.4101 22.9491 24.4977 22.8715L25.4826 21.9981L25.9324 19.8003Z" fill="#FED2A4"/>
<path d="M20.8712 23.0417H16.7337C16.4382 23.0417 16.1987 22.8022 16.1987 22.5067C16.1987 22.2112 16.4382 21.9717 16.7337 21.9717H20.8712C21.1667 21.9717 21.4062 22.2112 21.4062 22.5067C21.4062 22.8022 21.1667 23.0417 20.8712 23.0417Z" fill="#9C9C9C"/>
<path d="M12.6052 29.3192C13.8315 29.3192 14.8256 28.3251 14.8256 27.0988C14.8256 25.8725 13.8315 24.8784 12.6052 24.8784C11.3789 24.8784 10.3848 25.8725 10.3848 27.0988C10.3848 28.3251 11.3789 29.3192 12.6052 29.3192Z" fill="#D8ECFE"/>
<path d="M11.8418 27.0988C11.8418 26.1278 12.4654 25.3029 13.3337 25.0013C13.1054 24.9221 12.8604 24.8784 12.6052 24.8784C11.3789 24.8784 10.3848 25.8725 10.3848 27.0988C10.3848 28.3251 11.3789 29.3191 12.6052 29.3191C12.8604 29.3191 13.1054 29.2755 13.3337 29.1962C12.4654 28.8947 11.8418 28.0698 11.8418 27.0988Z" fill="#B3DAFE"/>
<path d="M23.6974 25.4937H16.7337C16.4382 25.4937 16.1987 25.7331 16.1987 26.0287C16.1987 26.3242 16.4382 26.5637 16.7337 26.5637H22.9445C23.1572 26.1798 23.4103 25.8216 23.6974 25.4937Z" fill="#9C9C9C"/>
<path d="M20.8711 28.7038H16.7337C16.4382 28.7038 16.1986 28.4643 16.1986 28.1688C16.1986 27.8733 16.4382 27.6338 16.7337 27.6338H20.8711C21.1666 27.6338 21.4061 27.8733 21.4061 28.1688C21.4061 28.4643 21.1666 28.7038 20.8711 28.7038Z" fill="#9C9C9C"/>
<path d="M23.6532 3.49544H12.8102C12.6132 3.49544 12.4535 3.33572 12.4535 3.13876V0.356678C12.4535 0.15972 12.6132 0 12.8102 0H23.6532C23.8502 0 24.0099 0.15972 24.0099 0.356678V3.13876C24.0099 3.33572 23.8502 3.49544 23.6532 3.49544Z" fill="#0182FC"/>
<path d="M16.4073 2.06873C16.2103 2.06873 16.0506 1.90901 16.0506 1.71205V0H12.8102C12.6132 0 12.4535 0.15972 12.4535 0.356678V3.13876C12.4535 3.33572 12.6132 3.49544 12.8102 3.49544H23.6532C23.8502 3.49544 24.0099 3.33572 24.0099 3.13876V2.06873H16.4073Z" fill="#0172FB"/>
<path d="M35.4651 4.86222L34.4107 4.25352C34.1196 4.08545 33.7473 4.18518 33.5793 4.4763L32.1792 6.90121L32.2437 7.00871L34.1415 8.10436L34.2878 8.11862L35.6879 5.69371C35.856 5.40259 35.7562 5.03029 35.4651 4.86222Z" fill="#9C9C9C"/>
<path d="M25.617 21.8795L24.5979 21.291L24.298 22.7562C24.2746 22.8708 24.4105 22.9493 24.4981 22.8717L25.617 21.8795Z" fill="#5A5A5A"/>
<path d="M32.1786 6.90137L34.2872 8.11878L27.1044 20.5593L24.9959 19.3419L32.1786 6.90137Z" fill="#FAC600"/>
<path d="M34.0497 5.81684C34.2178 5.52572 34.5901 5.42592 34.8812 5.59406L35.5294 5.96828L35.6879 5.69371C35.8559 5.40259 35.7562 5.03029 35.4651 4.86223L34.4107 4.25352C34.1196 4.08545 33.7473 4.18518 33.5793 4.4763L32.1792 6.90121L32.2437 7.00871L33.0821 7.49272L34.0497 5.81684Z" fill="#838383"/>
<path d="M32.6494 8.24198L33.8248 8.92052L34.2876 8.11878L32.179 6.90137L24.9963 19.3423L25.9296 19.8811L32.6494 8.24198Z" fill="#E8B800"/>
<path d="M28.3029 35.7128C31.7232 35.7128 34.496 32.9401 34.496 29.5197C34.496 26.0994 31.7232 23.3267 28.3029 23.3267C24.8826 23.3267 22.1098 26.0994 22.1098 29.5197C22.1098 32.9401 24.8826 35.7128 28.3029 35.7128Z" fill="#0182FC"/>
<path d="M24.896 29.5197C24.896 26.5784 26.9465 24.1161 29.696 23.484C29.2482 23.3811 28.7819 23.3267 28.3029 23.3267C24.8826 23.3267 22.1098 26.0994 22.1098 29.5197C22.1098 32.9401 24.8826 35.7128 28.3029 35.7128C28.7819 35.7128 29.2482 35.6584 29.696 35.5554C26.9465 34.9234 24.896 32.4611 24.896 29.5197Z" fill="#0172FB"/>
<path d="M28.1255 32.0626C27.8256 32.0626 27.5257 31.9482 27.2968 31.7194L25.2857 29.7085C24.828 29.2507 24.828 28.5086 25.2857 28.051C25.7434 27.5931 26.4856 27.5933 26.9432 28.0509L28.1254 29.2331L29.9655 27.3931C30.4232 26.9355 31.1654 26.9354 31.6229 27.3933C32.0807 27.851 32.0807 28.5931 31.6229 29.0507L28.9541 31.7194C28.7255 31.9482 28.4254 32.0626 28.1255 32.0626Z" fill="#0172FB"/>
<path d="M28.4688 31.7031C28.1689 31.7031 27.869 31.5887 27.6401 31.3599L25.629 29.349C25.1713 28.8913 25.1713 28.1491 25.629 27.6916C26.0867 27.2337 26.8289 27.2338 27.2864 27.6914L28.4687 28.8736L30.3088 27.0336C30.7665 26.5761 31.5086 26.5759 31.9662 27.0338C32.4239 27.4915 32.4239 28.2337 31.9662 28.6912L29.2974 31.3599C29.0687 31.5887 28.7687 31.7031 28.4688 31.7031Z" fill="white"/>
</g>
<defs>
<clipPath id="clip0_31_3075">
<rect width="36.5238" height="36.5238" fill="white"/>
</clipPath>
</defs>
</svg>
