<svg width="24" height="24" viewBox="0 0 24 24" fill="none" xmlns="http://www.w3.org/2000/svg">
<mask id="mask0_31_3209" style="mask-type:alpha" maskUnits="userSpaceOnUse" x="0" y="0" width="24" height="24">
<rect width="24" height="24" fill="#D9D9D9"/>
</mask>
<g mask="url(#mask0_31_3209)">
<path d="M3.7102 7.28136C3.5088 7.28136 3.34009 7.21327 3.20406 7.07711C3.06802 6.94092 3 6.77217 3 6.57086V3.83807C3 3.60061 3.08031 3.40157 3.24094 3.24094C3.40157 3.08031 3.60061 3 3.83807 3H6.57085C6.77217 3 6.94092 3.06812 7.07711 3.20437C7.21327 3.34062 7.28136 3.50944 7.28136 3.71084C7.28136 3.91225 7.21327 4.08097 7.07711 4.21699C6.94092 4.35302 6.77217 4.42103 6.57085 4.42103H4.42103V6.57086C4.42103 6.77217 4.35291 6.94092 4.21666 7.07711C4.08043 7.21327 3.91161 7.28136 3.7102 7.28136ZM3.83807 21C3.60061 21 3.40157 20.9197 3.24094 20.7591C3.08031 20.5984 3 20.3994 3 20.1619V17.4291C3 17.2278 3.06812 17.0591 3.20437 16.9229C3.34062 16.7867 3.50944 16.7186 3.71084 16.7186C3.91225 16.7186 4.08097 16.7867 4.21699 16.9229C4.35302 17.0591 4.42103 17.2278 4.42103 17.4291V19.579H6.57085C6.77217 19.579 6.94092 19.6471 7.07711 19.7833C7.21327 19.9196 7.28136 20.0884 7.28136 20.2898C7.28136 20.4912 7.21327 20.6599 7.07711 20.7959C6.94092 20.932 6.77217 21 6.57085 21H3.83807ZM17.4291 21C17.2278 21 17.0591 20.9319 16.9229 20.7956C16.7867 20.6594 16.7186 20.4906 16.7186 20.2892C16.7186 20.0878 16.7867 19.919 16.9229 19.783C17.0591 19.647 17.2278 19.579 17.4291 19.579H19.579V17.4291C19.579 17.2278 19.6471 17.0591 19.7833 16.9229C19.9196 16.7867 20.0884 16.7186 20.2898 16.7186C20.4912 16.7186 20.6599 16.7867 20.7959 16.9229C20.932 17.0591 21 17.2278 21 17.4291V20.1619C21 20.3994 20.9197 20.5984 20.7591 20.7591C20.5984 20.9197 20.3994 21 20.1619 21H17.4291ZM20.2892 7.28136C20.0878 7.28136 19.919 7.21327 19.783 7.07711C19.647 6.94092 19.579 6.77217 19.579 6.57086V4.42103H17.4291C17.2278 4.42103 17.0591 4.35291 16.9229 4.21666C16.7867 4.08043 16.7186 3.91161 16.7186 3.7102C16.7186 3.5088 16.7867 3.34009 16.9229 3.20406C17.0591 3.06802 17.2278 3 17.4291 3H20.1619C20.3994 3 20.5984 3.08031 20.7591 3.24094C20.9197 3.40157 21 3.60061 21 3.83807V6.57086C21 6.77217 20.9319 6.94092 20.7956 7.07711C20.6594 7.21327 20.4906 7.28136 20.2892 7.28136ZM16.9463 16.9463H18.2308V18.2308H16.9463V16.9463ZM16.9463 14.3775H18.2308V15.6619H16.9463V14.3775ZM15.6619 15.6619H16.9463V16.9463H15.6619V15.6619ZM14.3775 16.9463H15.6619V18.2308H14.3775V16.9463ZM13.0931 15.6619H14.3775V16.9463H13.0931V15.6619ZM15.6619 13.0931H16.9463V14.3775H15.6619V13.0931ZM14.3775 14.3775H15.6619V15.6619H14.3775V14.3775ZM13.0931 13.0931H14.3775V14.3775H13.0931V13.0931ZM18.2308 5.76924V10.9069H13.0931V5.76924H18.2308ZM10.9069 13.0931V18.2308H5.76924V13.0931H10.9069ZM10.9069 5.76924V10.9069H5.76924V5.76924H10.9069ZM9.77733 17.1012V14.2227H6.89879V17.1012H9.77733ZM9.77733 9.77733V6.89879H6.89879V9.77733H9.77733ZM17.1012 9.77733V6.89879H14.2227V9.77733H17.1012Z" fill="#353535"/>
</g>
</svg>
