<svg width="21" height="20" viewBox="0 0 21 20" fill="none" xmlns="http://www.w3.org/2000/svg">
<g opacity="0.4" clip-path="url(#clip0_104_618)">
<path d="M16.6917 10.817C16.725 10.5503 16.75 10.2837 16.75 10.0003C16.75 9.71699 16.725 9.45033 16.6917 9.18366L18.45 7.80866C18.6083 7.68366 18.65 7.45866 18.55 7.27532L16.8833 4.39199C16.8083 4.25866 16.6667 4.18366 16.5167 4.18366C16.4667 4.18366 16.4167 4.19199 16.375 4.20866L14.3 5.04199C13.8667 4.70866 13.4 4.43366 12.8917 4.22533L12.575 2.01699C12.55 1.81699 12.375 1.66699 12.1667 1.66699H8.83332C8.62499 1.66699 8.44999 1.81699 8.42499 2.01699L8.10832 4.22533C7.59999 4.43366 7.13332 4.71699 6.69999 5.04199L4.62499 4.20866C4.57499 4.19199 4.52499 4.18366 4.47499 4.18366C4.33332 4.18366 4.19166 4.25866 4.11666 4.39199L2.44999 7.27532C2.34165 7.45866 2.39165 7.68366 2.54999 7.80866L4.30832 9.18366C4.27499 9.45033 4.24999 9.72533 4.24999 10.0003C4.24999 10.2753 4.27499 10.5503 4.30832 10.817L2.54999 12.192C2.39165 12.317 2.34999 12.542 2.44999 12.7253L4.11666 15.6087C4.19166 15.742 4.33332 15.817 4.48332 15.817C4.53332 15.817 4.58332 15.8087 4.62499 15.792L6.69999 14.9587C7.13332 15.292 7.59999 15.567 8.10832 15.7753L8.42499 17.9837C8.44999 18.1837 8.62499 18.3337 8.83332 18.3337H12.1667C12.375 18.3337 12.55 18.1837 12.575 17.9837L12.8917 15.7753C13.4 15.567 13.8667 15.2837 14.3 14.9587L16.375 15.792C16.425 15.8087 16.475 15.817 16.525 15.817C16.6667 15.817 16.8083 15.742 16.8833 15.6087L18.55 12.7253C18.65 12.542 18.6083 12.317 18.45 12.192L16.6917 10.817ZM15.0417 9.39199C15.075 9.65033 15.0833 9.82533 15.0833 10.0003C15.0833 10.1753 15.0667 10.3587 15.0417 10.6087L14.925 11.5503L15.6667 12.1337L16.5667 12.8337L15.9833 13.842L14.925 13.417L14.0583 13.067L13.3083 13.6337C12.95 13.9003 12.6083 14.1003 12.2667 14.242L11.3833 14.6003L11.25 15.542L11.0833 16.667H9.91666L9.75832 15.542L9.62499 14.6003L8.74165 14.242C8.38332 14.092 8.04999 13.9003 7.71665 13.6503L6.95832 13.067L6.07499 13.4253L5.01665 13.8503L4.43332 12.842L5.33332 12.142L6.07499 11.5587L5.95832 10.617C5.93332 10.3587 5.91665 10.167 5.91665 10.0003C5.91665 9.83366 5.93332 9.64199 5.95832 9.39199L6.07499 8.45033L5.33332 7.86699L4.43332 7.16699L5.01665 6.15866L6.07499 6.58366L6.94165 6.93366L7.69165 6.36699C8.04999 6.10033 8.39165 5.90033 8.73332 5.75866L9.61665 5.40033L9.74999 4.45866L9.91666 3.33366H11.075L11.2333 4.45866L11.3667 5.40033L12.25 5.75866C12.6083 5.90866 12.9417 6.10033 13.275 6.35033L14.0333 6.93366L14.9167 6.57533L15.975 6.15033L16.5583 7.15866L15.6667 7.86699L14.925 8.45033L15.0417 9.39199ZM10.5 6.66699C8.65832 6.66699 7.16665 8.15866 7.16665 10.0003C7.16665 11.842 8.65832 13.3337 10.5 13.3337C12.3417 13.3337 13.8333 11.842 13.8333 10.0003C13.8333 8.15866 12.3417 6.66699 10.5 6.66699ZM10.5 11.667C9.58332 11.667 8.83332 10.917 8.83332 10.0003C8.83332 9.08366 9.58332 8.33366 10.5 8.33366C11.4167 8.33366 12.1667 9.08366 12.1667 10.0003C12.1667 10.917 11.4167 11.667 10.5 11.667Z" fill="black"/>
</g>
<defs>
<clipPath id="clip0_104_618">
<rect width="20" height="20" fill="white" transform="translate(0.5)"/>
</clipPath>
</defs>
</svg>
