<svg width="29" height="35" viewBox="0 0 29 35" fill="none" xmlns="http://www.w3.org/2000/svg">
<path d="M-23.2322 34.5209C-24.9266 33.9224 -26.5001 32.4874 -27.115 30.9797C-27.3663 30.3636 -27.7247 29.7563 -27.9114 29.63C-28.0981 29.5038 -29.4067 29.4437 -30.8193 29.4964C-33.6345 29.6015 -34.651 29.2822 -34.651 28.2931C-34.651 26.9534 -33.5084 26.4623 -30.391 26.4623C-27.5495 26.4623 -27.4337 26.4294 -26.9346 25.4789C-25.9168 23.5405 -23.2896 21.8135 -21.3586 21.8135C-19.2014 21.8135 -16.3034 23.5463 -15.3248 25.4211L-14.7814 26.4623H-4.22104H6.33926L6.95499 25.4296C9.69959 20.8263 15.4568 20.685 18.3864 25.1491C19.2347 26.4417 19.3407 26.4906 21.0704 26.3892L22.8713 26.2835L22.8439 22.7076L22.8166 19.1316L14.2257 19.0355C6.86808 18.9533 5.54113 18.8554 4.98217 18.3543C4.39464 17.8275 4.32954 17.0656 4.32954 10.7163C4.32954 5.09916 4.22646 3.57877 3.82301 3.24706C3.45069 2.9409 -1.47884 2.84291 -14.7797 2.87724C-33.2712 2.92502 -33.929 2.8808 -33.929 1.59096C-33.929 1.33407 -33.6737 0.871024 -33.3618 0.561945C-32.8611 0.065853 -30.6472 0 -14.4664 0H3.86188L5.08826 0.81626C5.86238 1.33148 6.5039 2.17056 6.82783 3.09146L7.34098 4.55042L10.5574 4.77661C14.6272 5.06282 15.1227 5.40425 20.3909 11.5523C25.8905 17.9704 25.7063 17.6198 25.842 21.928C26.0338 28.0131 25.2905 29.3231 21.646 29.3231C19.6248 29.3231 18.7667 29.734 18.7667 30.7018C18.7667 31.4814 17.0591 33.547 15.9509 34.108C13.2864 35.4566 10.5736 35.0707 8.27859 33.0163C7.49537 32.3153 6.72283 31.2378 6.56182 30.6218L6.26905 29.5019L-4.08558 29.407L-14.4402 29.3122L-15.0182 30.7435C-15.7307 32.5076 -17.5817 34.1676 -19.3917 34.6656C-21.1168 35.1402 -21.5219 35.125 -23.2322 34.5209ZM-18.7759 31.2934C-18.0616 30.8561 -17.3772 28.8637 -17.58 27.8124C-17.8231 26.5526 -19.1678 25.1262 -20.4016 24.8194C-22.6118 24.2698 -25.3428 26.9776 -24.6999 29.0812C-24.3962 30.0751 -23.1264 31.47 -22.2149 31.8112C-21.5015 32.0782 -19.5866 31.7898 -18.7759 31.2934ZM15.0493 31.2884C15.4753 30.9928 16.0076 30.1991 16.2322 29.5248C17.03 27.13 14.5144 24.2177 12.155 24.8044C9.07909 25.5693 8.19582 28.9393 10.5111 31.0764C11.4881 31.9782 13.8933 32.0905 15.0493 31.2884ZM20.5712 16.2703C20.5712 16.172 20.2869 15.7946 19.9395 15.4316C19.5921 15.0686 17.9613 13.2302 16.3154 11.3461L13.323 7.92057L11.0437 7.67874C7.22042 7.27308 7.41225 7.04815 7.29588 12.0729L7.19462 16.4491H13.8829C17.5615 16.4491 20.5712 16.3687 20.5712 16.2703ZM-42.3208 21.7844C-43.0458 21.366 -43.1575 20.0138 -42.5193 19.3814C-42.215 19.0799 -40.183 18.9523 -35.6874 18.9523C-30.3516 18.9523 -29.1944 19.0456 -28.7215 19.5143C-27.9779 20.251 -28.005 20.8531 -28.8144 21.5789C-29.3749 22.0815 -30.395 22.1691 -35.5818 22.1598C-39.0551 22.1526 -41.9616 21.9918 -42.3208 21.7844ZM-48.7234 15.2022C-48.9789 14.897 -49.0717 14.287 -48.9412 13.7716L-48.7135 12.8729H-36.8166H-24.9197L-24.692 13.7716C-24.2011 15.7094 -24.351 15.7337 -36.8166 15.7337C-46.5197 15.7337 -48.3463 15.6523 -48.7234 15.2022ZM-41.1478 8.58202C-41.4222 8.07389 -41.4222 7.65978 -41.1478 7.15163C-40.7756 6.46265 -40.392 6.43643 -30.6808 6.43643C-20.9696 6.43643 -20.586 6.4627 -20.2139 7.15163C-19.9394 7.65978 -19.9394 8.07389 -20.2139 8.58202C-20.586 9.27102 -20.9696 9.29722 -30.6808 9.29722C-40.392 9.29722 -40.7756 9.27095 -41.1478 8.58202Z" fill="white"/>
</svg>
